<svg xmlns="http://www.w3.org/2000/svg" xml:space="preserve" width="1000" height="1000" viewBox="0 0 1000 1000"><path d="M500 209.999 285.653 424.347 500 638.692l214.347-214.346zm0 351.209-50.89-50.889v-74.105h101.785v74.1zm50.896-148.729H449.11v-74.105L500 287.483l50.896 50.896zm-128.948-87.964v41.021l-58.811 58.811 58.811 58.811v41.021l-99.832-99.832zm156.426 158.32 58.488-58.488-58.488-58.488v-41.021l99.509 99.51-99.509 99.51zM160.496 709.028v31.916h33.688v-31.916h14.542v79.674h-14.542v-35.109h-33.688v35.109h-14.541v-79.674zm79.32 0v46.455c0 15.605 6.501 22.818 16.313 22.818 10.521 0 16.786-7.213 16.786-22.818v-46.455h14.537v45.512c0 24.586-12.646 35.461-31.797 35.461-18.442 0-30.379-10.281-30.379-35.344v-45.629h14.54zm128.141 76.008c-5.081 1.893-15.012 4.494-25.651 4.494-13.477 0-23.643-3.43-31.206-10.639-7.093-6.738-11.233-17.26-11.113-29.318 0-25.178 17.968-41.373 44.328-41.373 9.813 0 17.495 2.012 21.161 3.783l-3.191 11.703c-4.376-1.891-9.693-3.43-18.088-3.43-17.021 0-28.96 10.051-28.96 28.607 0 18.088 11.109 28.844 27.661 28.844 5.2 0 9.1-.709 10.992-1.654v-19.861h-14.066v-11.467h28.134v40.311zm85.583-36.998c0 26.717-16.194 41.963-38.179 41.963-22.463 0-36.646-17.139-36.646-40.547 0-24.467 15.366-41.725 37.827-41.725 23.286 0 36.998 17.614 36.998 40.309m-59.458 1.182c0 16.195 8.154 29.082 22.105 29.082 14.064 0 21.987-13.008 21.987-29.672 0-15.016-7.448-29.199-21.987-29.199-14.422 0-22.105 13.359-22.105 29.789m98.823 2.955v10.047h-30.144v-10.047zm70.569 34.164c-3.429 1.773-10.992 3.547-20.565 3.547-25.301 0-40.666-15.844-40.666-40.076 0-26.24 18.203-42.08 42.557-42.08 9.571 0 16.43 2.008 19.387 3.545l-3.192 11.584c-3.785-1.654-8.985-3.074-15.604-3.074-16.197 0-27.896 10.168-27.896 29.316 0 17.496 10.283 28.727 27.776 28.727 5.914 0 12.061-1.184 15.841-2.957zm80.033-38.301c0 26.717-16.196 41.963-38.182 41.963-22.461 0-36.644-17.139-36.644-40.547 0-24.467 15.366-41.725 37.827-41.725 23.287 0 36.999 17.614 36.999 40.309m-59.459 1.182c0 16.195 8.155 29.082 22.104 29.082 14.066 0 21.986-13.008 21.986-29.672 0-15.016-7.447-29.199-21.986-29.199-14.422 0-22.104 13.359-22.104 29.789m71.991-39.129c6.382-1.063 14.539-1.652 23.17-1.652 14.892 0 25.179 3.072 32.505 9.221 7.685 6.264 12.413 15.721 12.413 29.313 0 14.188-4.848 24.826-12.413 31.68-7.92 7.213-20.565 10.879-36.054 10.879-8.512 0-14.893-.475-19.621-1.068zm14.539 67.498c2.008.357 5.082.357 8.039.357 18.912.115 30.143-10.285 30.143-30.5.119-17.613-10.049-27.662-28.252-27.662-4.61 0-7.922.355-9.93.828v56.977zm110.766-24.233H751.32v23.406h33.57v11.939h-48.113v-79.674h46.338v11.938H751.32v20.57h30.023v11.821zm16.314-43.265c5.438-.943 13.593-1.652 21.986-1.652 11.467 0 19.268 1.889 24.588 6.383 4.373 3.662 6.857 9.219 6.857 15.959 0 10.281-6.978 17.258-14.422 19.977v.354c5.673 2.129 9.102 7.686 11.11 15.367 2.482 9.932 4.61 19.152 6.267 22.225H839.03c-1.182-2.363-3.072-8.867-5.319-18.797-2.245-10.402-6.029-13.713-14.304-13.947h-7.328v32.744h-14.422v-78.613zm14.422 35.226h8.629c9.811 0 15.959-5.199 15.959-13.121 0-8.748-6.148-12.766-15.604-12.766-4.61 0-7.567.354-8.983.709v25.178z"/></svg>