<svg xmlns="http://www.w3.org/2000/svg" xml:space="preserve" width="1000" height="1000" viewBox="0 0 1000 1000"><path d="M163.797 388.66 52.457 500l111.34 111.34L275.137 500zm-40.543 80.791L92.705 500l30.549 30.549v21.308L71.396 500l51.857-51.856v21.307zm66.98 75.203-26.438 26.438-26.436-26.435v-38.493h52.873v38.49zm0-50.818h-52.873v-38.493l26.436-26.435 26.438 26.438v38.49zm14.272 36.545L234.889 500l-30.383-30.381v-21.308L256.197 500l-51.691 51.689zm116.992-71.829v28.811h30.41v-28.811h13.125v71.919h-13.125V498.78h-30.41v31.691h-13.125v-71.919zm71.598 0v41.935c0 14.085 5.869 20.595 14.727 20.595 9.496 0 15.152-6.51 15.152-20.595v-41.935h13.123v41.081c0 22.194-11.416 32.012-28.703 32.012-16.646 0-27.422-9.283-27.422-31.905v-41.188zm115.67 68.611c-4.588 1.707-13.551 4.055-23.154 4.055-12.166 0-21.342-3.095-28.17-9.604-6.402-6.082-10.139-15.579-10.031-26.463 0-22.729 16.219-37.347 40.016-37.347 8.855 0 15.791 1.813 19.1 3.415l-2.881 10.563c-3.947-1.708-8.75-3.095-16.326-3.095-15.365 0-26.143 9.07-26.143 25.822 0 16.326 10.029 26.036 24.969 26.036 4.695 0 8.217-.64 9.924-1.493v-17.927h-12.697v-10.351h25.395v36.389zm77.255-33.398c0 24.115-14.619 37.88-34.467 37.88-20.273 0-33.078-15.473-33.078-36.6 0-22.088 13.871-37.667 34.146-37.667 21.021 0 33.399 15.898 33.399 36.387m-53.673 1.066c0 14.619 7.363 26.25 19.955 26.25 12.697 0 19.846-11.738 19.846-26.783 0-13.552-6.723-26.355-19.846-26.355-13.02-.001-19.955 12.056-19.955 26.888m89.207 2.668v9.07h-27.211v-9.07zm63.699 30.838c-3.094 1.601-9.924 3.201-18.566 3.201-22.834 0-36.705-14.299-36.705-36.174 0-23.688 16.432-37.986 38.412-37.986 8.645 0 14.832 1.814 17.5 3.201l-2.881 10.457c-3.414-1.494-8.109-2.774-14.084-2.774-14.619 0-25.184 9.177-25.184 26.463 0 15.792 9.283 25.93 25.076 25.93 5.336 0 10.883-1.067 14.299-2.668zm72.244-34.572c0 24.115-14.619 37.88-34.467 37.88-20.273 0-33.078-15.473-33.078-36.6 0-22.088 13.871-37.667 34.146-37.667 21.02 0 33.399 15.898 33.399 36.387m-53.674 1.066c0 14.619 7.363 26.25 19.955 26.25 12.697 0 19.846-11.738 19.846-26.783 0-13.552-6.723-26.355-19.846-26.355-13.019-.001-19.955 12.056-19.955 26.888m64.985-35.318c5.762-.961 13.125-1.494 20.914-1.494 13.445 0 22.729 2.773 29.344 8.322 6.936 5.656 11.205 14.191 11.205 26.463 0 12.805-4.375 22.408-11.205 28.597-7.148 6.51-18.566 9.817-32.545 9.817-7.682 0-13.445-.427-17.713-.961v-70.744zm13.125 60.927c1.814.32 4.588.32 7.256.32 17.072.106 27.209-9.283 27.209-27.529.107-15.9-9.068-24.97-25.502-24.97-4.162 0-7.148.32-8.963.747zm99.984-21.875h-27.102v21.128h30.303v10.777h-43.428v-71.919h41.828v10.777h-28.703v18.566h27.102zm14.727-39.052c4.908-.854 12.271-1.494 19.848-1.494 10.35 0 17.393 1.707 22.195 5.762 3.947 3.308 6.188 8.322 6.188 14.405 0 9.283-6.295 15.579-13.018 18.032v.32c5.121 1.922 8.217 6.937 10.029 13.872 2.242 8.963 4.162 17.286 5.656 20.061h-13.551c-1.068-2.134-2.775-8.003-4.803-16.966-2.027-9.391-5.441-12.378-12.91-12.592h-6.617v29.558h-13.018v-70.958zm13.017 31.797h7.791c8.855 0 14.404-4.694 14.404-11.844 0-7.896-5.549-11.523-14.086-11.523-4.16 0-6.828.319-8.109.64z"/></svg>